<svg width="40" height="40" viewBox="0 0 40 40" fill="none" xmlns="http://www.w3.org/2000/svg">
<path d="M10.0013 31.6667C8.61241 31.6667 7.43186 31.1806 6.45964 30.2083C5.48741 29.2361 5.0013 28.0556 5.0013 26.6667C4.08464 26.6667 3.30019 26.3406 2.64797 25.6883C1.99575 25.0361 1.66908 24.2511 1.66797 23.3333V11.6667C1.66797 10.75 1.99464 9.96557 2.64797 9.31334C3.3013 8.66112 4.08575 8.33445 5.0013 8.33334H26.9596C27.4041 8.33334 27.828 8.41668 28.2313 8.58334C28.6346 8.75001 28.9885 8.98612 29.293 9.29168L37.3763 17.375C37.6819 17.6806 37.918 18.035 38.0846 18.4383C38.2513 18.8417 38.3346 19.265 38.3346 19.7083V23.3333C38.3346 24.25 38.0085 25.035 37.3563 25.6883C36.7041 26.3417 35.9191 26.6678 35.0013 26.6667C35.0013 28.0556 34.5152 29.2361 33.543 30.2083C32.5707 31.1806 31.3902 31.6667 30.0013 31.6667C28.6124 31.6667 27.4319 31.1806 26.4596 30.2083C25.4874 29.2361 25.0013 28.0556 25.0013 26.6667H15.0013C15.0013 28.0556 14.5152 29.2361 13.543 30.2083C12.5707 31.1806 11.3902 31.6667 10.0013 31.6667ZM25.0013 16.6667H31.668L26.668 11.6667H25.0013V16.6667ZM15.0013 16.6667H21.668V11.6667H15.0013V16.6667ZM5.0013 16.6667H11.668V11.6667H5.0013V16.6667ZM10.0013 28.75C10.5846 28.75 11.078 28.5483 11.4813 28.145C11.8846 27.7417 12.0857 27.2489 12.0846 26.6667C12.0835 26.0845 11.8819 25.5911 11.4796 25.1867C11.0774 24.7822 10.5846 24.5811 10.0013 24.5833C9.41797 24.5856 8.92464 24.7872 8.5213 25.1883C8.11797 25.5895 7.91686 26.0822 7.91797 26.6667C7.91908 27.2511 8.12075 27.7445 8.52297 28.1467C8.92519 28.5489 9.41797 28.75 10.0013 28.75ZM30.0013 28.75C30.5846 28.75 31.078 28.5483 31.4813 28.145C31.8846 27.7417 32.0857 27.2489 32.0846 26.6667C32.0835 26.0845 31.8819 25.5911 31.4796 25.1867C31.0774 24.7822 30.5846 24.5811 30.0013 24.5833C29.418 24.5856 28.9246 24.7872 28.5213 25.1883C28.118 25.5895 27.9169 26.0822 27.918 26.6667C27.9191 27.2511 28.1207 27.7445 28.523 28.1467C28.9252 28.5489 29.418 28.75 30.0013 28.75ZM13.668 23.3333H26.3346C26.8069 22.8333 27.3485 22.4306 27.9596 22.125C28.5707 21.8195 29.2513 21.6667 30.0013 21.6667C30.7513 21.6667 31.4319 21.8195 32.043 22.125C32.6541 22.4306 33.1957 22.8333 33.668 23.3333H35.0013V20H5.0013V23.3333H6.33464C6.80686 22.8333 7.34852 22.4306 7.95964 22.125C8.57075 21.8195 9.2513 21.6667 10.0013 21.6667C10.7513 21.6667 11.4319 21.8195 12.043 22.125C12.6541 22.4306 13.1957 22.8333 13.668 23.3333Z" fill="#393939"/>
</svg>
