<svg width="24" height="24" viewBox="0 0 24 24" fill="#000" xmlns="http://www.w3.org/2000/svg">
<g clip-path="url(#clip0_5252_14564)">
<mask id="mask0_5252_14564" style="mask-type:luminance" maskUnits="userSpaceOnUse" x="0" y="0" width="24" height="24">
<path d="M0 0H24V24H0V0Z" fill="white"/>
</mask>
<g mask="url(#mask0_5252_14564)">
<path d="M14.071 7.58601L13.243 8.41401C13.0572 8.59986 12.8366 8.74727 12.5938 8.84782C12.351 8.94837 12.0908 9.00008 11.828 9.00001H10.414C10.039 9.00001 9.679 9.14901 9.414 9.41401C9.28265 9.54531 9.17846 9.70121 9.10737 9.87279C9.03629 10.0444 8.9997 10.2283 8.9997 10.414C8.9997 10.5997 9.03629 10.7836 9.10737 10.9552C9.17846 11.1268 9.28265 11.2827 9.414 11.414L11.243 13.243C11.6181 13.6179 12.1267 13.8286 12.657 13.8286C13.1873 13.8286 13.6959 13.6179 14.071 13.243L15.485 11.828L16.449 13.949C16.5389 14.1472 16.6756 14.3206 16.8472 14.4544C17.0189 14.5882 17.2204 14.6783 17.4345 14.7172C17.6486 14.756 17.869 14.7423 18.0767 14.6774C18.2844 14.6124 18.4732 14.498 18.627 14.344C18.879 14.092 19.021 13.749 19.021 13.392V9.12201C19.0209 8.85922 19.0726 8.59899 19.1732 8.35619C19.2737 8.1134 19.4212 7.8928 19.607 7.70701L21.849 5.46401C22.321 4.99401 22.981 3.76701 21.849 2.63601C20.717 1.50501 19.492 2.16501 19.021 2.63601L17.253 4.40401M14.071 7.58601L12.051 6.91201C11.817 6.83391 11.6067 6.69731 11.4403 6.51515C11.2739 6.333 11.1568 6.11135 11.1001 5.87122C11.0434 5.63109 11.049 5.38046 11.1163 5.14311C11.1837 4.90575 11.3106 4.68955 11.485 4.51501C11.631 4.36918 11.8064 4.2562 11.9996 4.1836C12.1927 4.11099 12.3991 4.08045 12.605 4.09401L17.253 4.40401M14.071 7.58601L17.253 4.40401M2 14.905C2.705 13.671 3.825 12.585 5 11.701M2 22.404C3.072 19.402 5.055 16.84 7.023 14.904M7.5 21.404C8.221 19.962 9.46 18.327 10.587 16.999" stroke="white" stroke-width="1.5" stroke-linecap="round" stroke-linejoin="round"/>
</g>
</g>
<defs>
<clipPath id="clip0_5252_14564">
<rect width="24" height="24" fill="white"/>
</clipPath>
</defs>
</svg>
