<svg width="40" height="40" viewBox="0 0 40 40" fill="none" xmlns="http://www.w3.org/2000/svg">
<path d="M32.5 22.5H25V18.6225C25.035 16.9147 25.536 15.2489 26.4487 13.805C27.3673 12.2622 27.6992 10.4401 27.3838 8.67243C27.0683 6.90479 26.1267 5.30995 24.7313 4.18001C23.7239 3.3588 22.5204 2.8136 21.2387 2.59791C19.9571 2.38222 18.6414 2.50345 17.4207 2.94971C16.2001 3.39597 15.1164 4.15191 14.2761 5.14337C13.4358 6.13483 12.8677 7.32773 12.6275 8.60501C12.2818 10.3999 12.615 12.2593 13.5625 13.8225C14.4596 15.2185 14.9568 16.8337 15 18.4925V22.5H7.5C6.83696 22.5 6.20107 22.7634 5.73223 23.2322C5.26339 23.7011 5 24.337 5 25V30C5.00099 30.6627 5.2647 31.2981 5.73333 31.7667C6.20195 32.2353 6.83726 32.499 7.5 32.5V35C7.50099 35.6628 7.7647 36.2981 8.23333 36.7667C8.70195 37.2353 9.33726 37.499 10 37.5H30C30.6627 37.499 31.298 37.2353 31.7667 36.7667C32.2353 36.2981 32.499 35.6628 32.5 35V32.5C33.1627 32.499 33.798 32.2353 34.2667 31.7667C34.7353 31.2981 34.999 30.6627 35 30V25C35 24.337 34.7366 23.7011 34.2678 23.2322C33.7989 22.7634 33.163 22.5 32.5 22.5ZM15.0875 9.05501C15.2214 8.33689 15.511 7.65682 15.9359 7.06266C16.3609 6.4685 16.9109 5.97467 17.5472 5.61591C18.1835 5.25715 18.8908 5.04218 19.6191 4.98612C20.3474 4.93006 21.0792 5.03427 21.7629 5.29142C22.4467 5.54858 23.0658 5.95243 23.5766 6.47456C24.0875 6.99669 24.4778 7.62443 24.72 8.3136C24.9622 9.00277 25.0504 9.73665 24.9785 10.4636C24.9066 11.1905 24.6763 11.8929 24.3038 12.5213C23.3757 14.0364 22.7884 15.7352 22.5825 17.5H17.425C17.2283 15.7368 16.6407 14.0398 15.705 12.5325C15.0763 11.4896 14.8563 10.2507 15.0875 9.05501ZM22.5 20V22.5H17.5V20H22.5ZM30 35H10V32.5H30V35ZM7.5 30V25H32.5V30H7.5Z" fill="#393939"/>
</svg>
