<svg width="24" height="24" viewBox="0 0 24 24" fill="none" xmlns="http://www.w3.org/2000/svg">
<path d="M19.5 13.5H15V11.1735C15.021 10.1488 15.3216 9.14931 15.8693 8.283C16.4204 7.35729 16.6195 6.26403 16.4303 5.20345C16.241 4.14287 15.676 3.18597 14.8387 2.508C14.2343 2.01527 13.5122 1.68815 12.7432 1.55874C11.9742 1.42933 11.1848 1.50207 10.4524 1.76982C9.72005 2.03757 9.06985 2.49114 8.56566 3.08602C8.06147 3.68089 7.7206 4.39663 7.5765 5.163C7.36908 6.23996 7.56901 7.35558 8.1375 8.2935C8.67577 9.13108 8.97408 10.1002 9 11.0955V13.5H4.5C4.10218 13.5 3.72064 13.658 3.43934 13.9393C3.15804 14.2206 3 14.6022 3 15V18C3.0006 18.3976 3.15882 18.7788 3.44 19.06C3.72117 19.3412 4.10236 19.4994 4.5 19.5V21C4.5006 21.3976 4.65882 21.7788 4.94 22.06C5.22117 22.3412 5.60236 22.4994 6 22.5H18C18.3976 22.4994 18.7788 22.3412 19.06 22.06C19.3412 21.7788 19.4994 21.3976 19.5 21V19.5C19.8976 19.4994 20.2788 19.3412 20.56 19.06C20.8412 18.7788 20.9994 18.3976 21 18V15C21 14.6022 20.842 14.2206 20.5607 13.9393C20.2794 13.658 19.8978 13.5 19.5 13.5ZM9.0525 5.433C9.13283 5.00213 9.30659 4.59409 9.56157 4.23759C9.81654 3.88109 10.1465 3.58479 10.5283 3.36954C10.9101 3.15428 11.3345 3.0253 11.7715 2.99166C12.2085 2.95803 12.6475 3.02056 13.0578 3.17485C13.468 3.32914 13.8395 3.57145 14.146 3.88473C14.4525 4.19801 14.6867 4.57465 14.832 4.98815C14.9773 5.40166 15.0303 5.84198 14.9871 6.27815C14.944 6.71432 14.8058 7.13573 14.5823 7.51275C14.0254 8.42182 13.673 9.44114 13.5495 10.5H10.455C10.337 9.4421 9.98442 8.42386 9.423 7.5195C9.04579 6.89372 8.91379 6.15039 9.0525 5.433ZM13.5 12V13.5H10.5V12H13.5ZM18 21H6V19.5H18V21ZM4.5 18V15H19.5V18H4.5Z" fill="white"/>
</svg>
