<svg width="24" height="24" viewBox="0 0 24 24" fill="none" xmlns="http://www.w3.org/2000/svg">
<path d="M12.5 10.5H18M16 18L13 22M13 22H8M13 22H18M8.48201 18H17.972C19.092 18 20 17.108 20 16.007C20 14.5 17.972 14.014 17.972 14.014C17.972 14.014 14.284 12.596 10 14C10 14 9.861 8.873 7.71 3.17C7.285 2.046 5.901 1.662 4.885 2.327C4.55878 2.53865 4.3037 2.84346 4.15284 3.20188C4.00199 3.56029 3.96233 3.95577 4.039 4.337L6.493 16.397C6.58909 16.8524 6.83951 17.2607 7.20194 17.5528C7.56436 17.8449 8.01654 18.0029 8.48201 18Z" stroke="#393939" stroke-width="1.5" stroke-linecap="round" stroke-linejoin="round"/>
</svg>
