<svg width="40" height="40" viewBox="0 0 40 40" fill="none" xmlns="http://www.w3.org/2000/svg">
<path d="M13.3346 16.6667H26.668M11.668 23.3333H13.3346M26.668 23.3333H28.3346" stroke="#393939" stroke-width="3" stroke-linecap="round" stroke-linejoin="round"/>
<path d="M5 30V19.0167C5.00034 18.5657 5.0922 18.1194 5.27 17.705L9.135 8.68832C9.39173 8.08853 9.81883 7.57727 10.3634 7.2179C10.9079 6.85854 11.5459 6.66687 12.1983 6.66666H27.8017C28.4539 6.66673 29.0918 6.85815 29.6363 7.21721C30.1808 7.57626 30.608 8.08718 30.865 8.68666L34.7317 17.7033C34.9093 18.1189 35.0006 18.5663 35 19.0183V30M5 30V34C5 34.2652 5.10536 34.5196 5.29289 34.7071C5.48043 34.8946 5.73478 35 6 35H10.6667C10.9319 35 11.1862 34.8946 11.3738 34.7071C11.5613 34.5196 11.6667 34.2652 11.6667 34V30M5 30H11.6667M35 30V34C35 34.2652 34.8946 34.5196 34.7071 34.7071C34.5196 34.8946 34.2652 35 34 35H29.3333C29.202 35 29.072 34.9741 28.9507 34.9239C28.8293 34.8736 28.7191 34.8 28.6262 34.7071C28.5334 34.6142 28.4597 34.504 28.4095 34.3827C28.3592 34.2613 28.3333 34.1313 28.3333 34V30M35 30H28.3333M11.6667 30H28.3333" stroke="#393939" stroke-width="3"/>
</svg>
