<svg width="101" height="100" viewBox="0 0 101 100" fill="none" xmlns="http://www.w3.org/2000/svg">
<rect x="0.5" width="100" height="100" rx="50" fill="#FD9602" fill-opacity="0.2"/>
<g clip-path="url(#clip0_5580_2091)">
<path d="M59.8333 34C56.1587 34 53.1667 36.992 53.1667 40.6667C53.1667 44.3413 56.1587 47.3333 59.8333 47.3333C63.508 47.3333 66.5 44.3413 66.5 40.6667C66.5 36.992 63.508 34 59.8333 34ZM59.8333 44.6667C57.628 44.6667 55.8333 42.872 55.8333 40.6667C55.8333 38.4613 57.628 36.6667 59.8333 36.6667C62.0387 36.6667 63.8333 38.4613 63.8333 40.6667C63.8333 42.872 62.0387 44.6667 59.8333 44.6667ZM82.5 24.6667C82.5 20.992 79.508 18 75.796 18C62.6173 18.376 50.612 24.8053 40.8333 36.6693C36.604 36.72 32.3853 37.7467 28.6067 39.6427C22.468 42.7227 18.5 49.4053 18.5 56.6667V58H31.8333C34.6813 58 37.3613 59.1093 39.3773 61.1227C41.3907 63.1387 42.5 65.816 42.5 68.6667V82H43.8333C51.0947 82 57.7773 78.0347 60.8573 71.896C62.756 68.1173 63.78 63.896 63.8307 59.6667C75.692 49.888 82.124 37.88 82.5 24.6667ZM29.8013 42.0267C32.5587 40.6427 35.5747 39.7733 38.6467 39.464C38.3853 39.816 38.124 40.1707 37.8653 40.5307C33.724 46.3093 30.6333 53.0213 29.62 55.3333H21.2173C21.66 49.6 24.932 44.4693 29.8013 42.0267ZM58.4733 70.6987C56.028 75.568 50.9 78.84 45.1667 79.2827V70.88C47.4813 69.8667 54.1907 66.776 59.972 62.6347C60.332 62.376 60.6867 62.1173 61.0387 61.856C60.7293 64.928 59.86 67.944 58.476 70.7013L58.4733 70.6987ZM58.4173 60.4667C53.6093 63.912 47.98 66.6667 45.148 67.9627C44.9773 64.6667 43.612 61.592 41.2627 59.24C38.9107 56.888 35.836 55.5253 32.54 55.3547C33.836 52.5227 36.5907 46.8933 40.036 42.0853C46.844 32.584 58.588 21.1573 75.8333 20.6667C78.0387 20.6667 79.8333 22.4613 79.8333 24.6293C79.3427 41.912 67.916 53.656 58.4173 60.4667ZM23.1187 67.952C20.852 70.216 19.3347 78.3013 19.0547 79.8987L18.724 81.7733L20.5987 81.4427C22.196 81.1627 30.2813 79.6453 32.5453 77.3787C33.804 76.12 34.4973 74.4453 34.4973 72.664C34.4973 70.8827 33.804 69.208 32.5453 67.9493C30.0307 65.432 25.6333 65.4347 23.1187 67.952ZM30.66 75.4933C29.6307 76.5227 25.5027 77.7093 22.0547 78.4427C22.788 74.9947 23.9747 70.8667 25.004 69.8373C25.7587 69.0827 26.764 68.6667 27.8333 68.6667C28.9027 68.6667 29.9053 69.0827 30.6627 69.8373C31.42 70.592 31.8333 71.5973 31.8333 72.6667C31.8333 73.736 31.4173 74.7387 30.6627 75.496L30.66 75.4933Z" fill="#393939"/>
</g>
<defs>
<clipPath id="clip0_5580_2091">
<rect width="64" height="64" fill="white" transform="translate(18.5 18)"/>
</clipPath>
</defs>
</svg>
