<svg width="101" height="100" viewBox="0 0 101 100" fill="none" xmlns="http://www.w3.org/2000/svg">
<rect x="0.5" width="100" height="100" rx="50" fill="#FD9602" fill-opacity="0.2"/>
<g clip-path="url(#clip0_5580_2086)">
<path d="M19.9187 47.3227C20.6333 47.4213 21.3213 46.9067 21.412 46.1733C21.9053 42.3813 23.1453 38.8 25.0387 35.488C26.2467 36.2213 27.6493 36.6693 29.164 36.6693C33.5747 36.6693 37.164 33.08 37.164 28.6693C37.164 27.1547 36.716 25.752 35.9827 24.544C39.2947 22.6507 42.876 21.4107 46.668 20.9173C47.3987 20.8213 47.9133 20.1547 47.8173 19.424C47.7213 18.6933 47.0573 18.1653 46.324 18.2747C42.004 18.8373 37.9267 20.2667 34.1827 22.4907C32.8067 21.3707 31.0733 20.6693 29.164 20.6693C24.7533 20.6693 21.164 24.2587 21.164 28.6693C21.164 30.5787 21.8653 32.312 22.9853 33.688C20.7613 37.4293 19.3293 41.5067 18.7693 45.8293C18.6733 46.56 19.188 47.2267 19.9187 47.3227ZM29.164 23.3333C32.1053 23.3333 34.4973 25.7253 34.4973 28.6667C34.4973 31.608 32.1053 34 29.164 34C26.2227 34 23.8307 31.608 23.8307 28.6667C23.8307 25.7253 26.2227 23.3333 29.164 23.3333ZM46.668 79.0853C42.876 78.592 39.2947 77.352 35.9827 75.4587C36.716 74.2507 37.164 72.848 37.164 71.3333C37.164 66.9227 33.5747 63.3333 29.164 63.3333C27.6493 63.3333 26.2467 63.7813 25.0387 64.5147C23.1453 61.2027 21.9053 57.6213 21.412 53.8293C21.316 53.0987 20.644 52.568 19.9187 52.68C19.188 52.776 18.6733 53.4427 18.7693 54.1733C19.332 58.4933 20.7613 62.5707 22.988 66.3147C21.868 67.6907 21.1667 69.424 21.1667 71.3333C21.1667 75.744 24.756 79.3333 29.1667 79.3333C31.076 79.3333 32.8093 78.632 34.1853 77.512C37.9293 79.736 42.0067 81.168 46.3267 81.7307C47.0413 81.8293 47.7293 81.3147 47.82 80.5813C47.916 79.8507 47.4013 79.184 46.6707 79.088L46.668 79.0853ZM29.164 76.6667C26.2227 76.6667 23.8307 74.2747 23.8307 71.3333C23.8307 68.392 26.2227 66 29.164 66C32.1053 66 34.4973 68.392 34.4973 71.3333C34.4973 74.2747 32.1053 76.6667 29.164 76.6667ZM81.0787 52.6773C80.3587 52.5707 79.6813 53.096 79.5827 53.8267C79.0867 57.6213 77.8493 61.2027 75.956 64.512C74.748 63.7787 73.3453 63.3307 71.8307 63.3307C67.42 63.3307 63.8307 66.92 63.8307 71.3307C63.8307 72.8453 64.2787 74.248 65.012 75.456C61.7 77.3493 58.1187 78.5893 54.3267 79.0827C53.5987 79.1787 53.0813 79.8453 53.1747 80.576C53.268 81.3093 53.9533 81.824 54.6707 81.7253C58.9933 81.1627 63.0707 79.7333 66.812 77.5067C68.188 78.6293 69.9213 79.328 71.8333 79.328C76.244 79.328 79.8333 75.7387 79.8333 71.328C79.8333 69.4187 79.132 67.688 78.012 66.3093C80.236 62.568 81.6653 58.4907 82.2307 54.1653C82.324 53.4373 81.812 52.768 81.0787 52.672V52.6773ZM71.8307 76.6667C68.8893 76.6667 66.4973 74.2747 66.4973 71.3333C66.4973 68.392 68.8893 66 71.8307 66C74.772 66 77.164 68.392 77.164 71.3333C77.164 74.2747 74.772 76.6667 71.8307 76.6667ZM54.3267 20.9147C58.1187 21.408 61.7027 22.648 65.012 24.5413C64.2787 25.7493 63.8307 27.152 63.8307 28.6667C63.8307 33.0773 67.42 36.6667 71.8307 36.6667C73.3453 36.6667 74.748 36.2187 75.956 35.4853C77.8467 38.7947 79.0867 42.376 79.5827 46.1707C79.676 46.904 80.3613 47.4187 81.0787 47.32C81.8093 47.224 82.324 46.5547 82.2307 45.8267C81.6653 41.5013 80.236 37.424 78.0093 33.6853C79.132 32.3093 79.8307 30.576 79.8307 28.664C79.8307 24.2533 76.2413 20.664 71.8307 20.664C69.9213 20.664 68.188 21.3653 66.8093 22.4853C63.068 20.2587 58.9907 18.8293 54.668 18.2667C53.9427 18.16 53.2707 18.6853 53.172 19.416C53.0787 20.1467 53.5933 20.8133 54.324 20.9093L54.3267 20.9147ZM71.8307 23.3333C74.772 23.3333 77.164 25.7253 77.164 28.6667C77.164 31.608 74.772 34 71.8307 34C68.8893 34 66.4973 31.608 66.4973 28.6667C66.4973 25.7253 68.8893 23.3333 71.8307 23.3333ZM66.4973 45.7013C66.4973 40.6373 62.6893 36.6667 57.8307 36.6667C54.9453 36.6667 52.3987 38.0987 50.4973 40.7467C48.596 38.0987 46.0493 36.6667 43.164 36.6667C38.3053 36.6667 34.4973 40.6347 34.4973 45.7013C34.4973 53.4747 45.0707 62.2053 46.276 63.176C48.7613 65.1733 52.2333 65.1733 54.7187 63.176C55.924 62.2053 66.4973 53.4747 66.4973 45.7013ZM47.948 61.0987C43.9427 57.8773 37.164 51.008 37.164 45.7013C37.164 42.072 39.7427 39.3333 43.164 39.3333C46.34 39.3333 48.2573 41.8347 49.3053 43.9307C49.7587 44.8347 51.2387 44.8347 51.692 43.9307C52.74 41.8347 54.6547 39.3333 57.8333 39.3333C61.252 39.3333 63.8333 42.0693 63.8333 45.7013C63.8333 51.008 57.0547 57.8747 53.0493 61.0987C51.5507 62.304 49.4493 62.304 47.9507 61.0987H47.948Z" fill="#393939"/>
</g>
<defs>
<clipPath id="clip0_5580_2086">
<rect width="64" height="64" fill="white" transform="translate(18.5 18)"/>
</clipPath>
</defs>
</svg>
