<svg width="40" height="40" viewBox="0 0 40 40" fill="none" xmlns="http://www.w3.org/2000/svg">
<path d="M7.5 3.75V36.25H32.5V3.75H7.5ZM10 6.25H30V33.75H10V6.25ZM20 10C15.875 10 12.5 13.375 12.5 17.5C12.5 21.625 15.875 25 20 25C24.125 25 27.5 21.625 27.5 17.5C27.5 13.375 24.125 10 20 10ZM20.86 12.6175C21.465 12.72 22.0312 12.905 22.5387 13.2037L22.6175 14.1012L22.0312 13.8675L21.5625 14.2575L21.6412 15.39L22.8512 15.04L24.3363 15.5075L23.945 16.1713L23.0475 15.625L22.07 15.7812L21.1325 16.485L20.5863 18.125L21.64 18.985C21.64 18.985 22.7537 18.7887 22.8125 18.7887C22.8713 18.7887 23.2812 19.805 23.2812 19.805L22.6562 21.7188C21.862 22.224 20.9413 22.4948 20 22.5C19.7075 22.5 19.4188 22.4312 19.14 22.3825L18.9062 21.9925L19.4925 19.805L17.2662 18.125H15.195L15.0388 17.8125C15.0338 17.705 15 17.6075 15 17.5C15 17.2312 15.0387 16.9725 15.0787 16.7188L16.1325 15.8988L18.3588 14.8438L18.0087 13.3988L18.9838 13.2037L19.4137 13.8287L21.0938 13.5162L20.86 12.6175ZM16.3287 20.8988H16.7188L17.4613 21.7962C17.0423 21.5535 16.6608 21.2512 16.3287 20.8988ZM12.5 27.5V30H27.5V27.5H12.5Z" fill="#393939"/>
</svg>
