<?xml version="1.0" encoding="UTF-8"?>
<svg version="1.1" xmlns="http://www.w3.org/2000/svg" width="64" height="64">
<path d="M0 0 C21.12 0 42.24 0 64 0 C64 21.12 64 42.24 64 64 C42.88 64 21.76 64 0 64 C0 42.88 0 21.76 0 0 Z " fill="#FEFDFB" transform="translate(0,0)"/>
<path d="M0 0 C0 17.49 0 34.98 0 53 C-12.87 53 -25.74 53 -39 53 C-39.33 52.34 -39.66 51.68 -40 51 C-39.18015625 50.69707031 -38.3603125 50.39414062 -37.515625 50.08203125 C-35.89914063 49.45361328 -35.89914063 49.45361328 -34.25 48.8125 C-33.18265625 48.40644531 -32.1153125 48.00039063 -31.015625 47.58203125 C-26.30692872 45.11179551 -23.49646119 41.14714234 -21.54296875 36.21484375 C-19.9103365 29.55511362 -19.9065714 22.37435719 -23 16.1875 C-23.99 14.6096875 -23.99 14.6096875 -25 13 C-19.375 8 -19.375 8 -16 8 C-15.34 7.01 -14.68 6.02 -14 5 C-13.01 5 -12.02 5 -11 5 C-11 7.64 -11 10.28 -11 13 C-10.34 13 -9.68 13 -9 13 C-8.87625 11.9275 -8.7525 10.855 -8.625 9.75 C-7.72043011 4.32258065 -7.72043011 4.32258065 -6 2 C-1.9 0 -1.9 0 0 0 Z " fill="#FEFDFB" transform="translate(64,11)"/>
<path d="M0 0 C-0.33 0.99 -0.66 1.98 -1 3 C-1.78375 3.185625 -2.5675 3.37125 -3.375 3.5625 C-6.71320608 5.39056523 -6.76300571 6.55471082 -7.8125 10.125 C-8.22785648 11.74511976 -8.6298555 13.36895675 -9 15 C-9.66 15 -10.32 15 -11 15 C-11 12.36 -11 9.72 -11 7 C-13.95021837 7.72397586 -13.95021837 7.72397586 -15.375 9.4375 C-17 11 -17 11 -19.5625 12 C-22.31238322 12.86272409 -22.31238322 12.86272409 -24 16 C-23.34 16.886875 -22.68 17.77375 -22 18.6875 C-18.91894379 24.14284683 -19.16603429 29.93218053 -20 36 C-22.49576571 43.65095388 -26.13453802 47.79116459 -33.0625 51.75 C-38.82432706 54.06739418 -46.0646974 54.04375202 -51.8671875 51.98046875 C-52.57101563 51.65691406 -53.27484375 51.33335938 -54 51 C-51.9006483 36.62342694 -39.99441264 23.69152891 -29 15 C-20.79487179 9 -20.79487179 9 -18 9 C-18.495 6.525 -18.495 6.525 -19 4 C-18.4534375 4.21527344 -17.906875 4.43054688 -17.34375 4.65234375 C-14.09119613 5.13480591 -12.40560766 4.03525993 -9.5 2.5625 C-5.82131154 0.70799634 -4.21611956 0 0 0 Z " fill="#FD9607" transform="translate(64,9)"/>
<path d="M0 0 C-1.64976771 3.29953543 -5.27721093 4.17522654 -8.5 5.6875 C-14.97914903 8.81907674 -20.54998144 12.25824377 -26 17 C-27.010625 17.804375 -28.02125 18.60875 -29.0625 19.4375 C-29.701875 19.953125 -30.34125 20.46875 -31 21 C-31.83683687 16.1442799 -31.93055792 12.47441732 -29.2421875 8.21484375 C-21.62542102 -0.55089259 -11.38168118 -6.07022996 0 0 Z " fill="#FEA60F" transform="translate(31,18)"/>
<path d="M0 0 C-0.33 0.99 -0.66 1.98 -1 3 C-2.175625 3.2784375 -2.175625 3.2784375 -3.375 3.5625 C-6.71320608 5.39056523 -6.76300571 6.55471082 -7.8125 10.125 C-8.22785648 11.74511976 -8.6298555 13.36895675 -9 15 C-9.66 15 -10.32 15 -11 15 C-11 12.36 -11 9.72 -11 7 C-13.95021837 7.72397586 -13.95021837 7.72397586 -15.375 9.4375 C-17.39522935 11.38002822 -19.39220581 12.02207718 -22 13 C-22.99 13.66 -23.98 14.32 -25 15 C-25 14.01 -25 13.02 -25 12 C-20.77777778 9 -20.77777778 9 -18 9 C-18.33 7.35 -18.66 5.7 -19 4 C-18.4534375 4.21527344 -17.906875 4.43054688 -17.34375 4.65234375 C-14.09119613 5.13480591 -12.40560766 4.03525993 -9.5 2.5625 C-5.82131154 0.70799634 -4.21611956 0 0 0 Z " fill="#FEB424" transform="translate(64,9)"/>
<path d="M0 0 C2.97 0.495 2.97 0.495 6 1 C4.75 3.9375 4.75 3.9375 3 7 C1.125 7.6875 1.125 7.6875 -1 8 C-2.68991979 8.9601817 -4.36209288 9.95355934 -6 11 C-6 10.01 -6 9.02 -6 8 C-1.77777778 5 -1.77777778 5 1 5 C0.67 3.35 0.34 1.7 0 0 Z " fill="#FEB938" transform="translate(45,13)"/>
<path d="M0 0 C4.75 1.875 4.75 1.875 7 3 C7 3.66 7 4.32 7 5 C4.625 4.75 4.625 4.75 2 4 C0.6875 1.9375 0.6875 1.9375 0 0 Z " fill="#FEBC35" transform="translate(47,6)"/>
</svg>
