<svg width="44" height="48" viewBox="0 0 44 48" fill="none" xmlns="http://www.w3.org/2000/svg">
<path d="M0.667969 16H6.0013V0H11.3346L20.4546 16H32.668V0H38.0013V16H43.3346V21.3333H38.0013V26.6667H43.3346V32H38.0013V48H32.668L23.5213 32H11.3346V48H6.0013V32H0.667969V26.6667H6.0013V21.3333H0.667969V16ZM11.3346 16H14.348L11.3346 10.7467V16ZM11.3346 21.3333V26.6667H20.4546L17.4146 21.3333H11.3346ZM32.668 37.3333V32H29.6013L32.668 37.3333ZM23.4946 21.3333L26.5613 26.6667H32.668V21.3333H23.4946Z" fill="#FD9602"/>
</svg>
