<svg width="32" height="32" viewBox="0 0 32 32" fill="none" xmlns="http://www.w3.org/2000/svg">
<g clip-path="url(#clip0_5634_8031)">
<rect x="-0.000488281" width="32" height="32" rx="16" fill="white"/>
<path d="M15.9995 0C7.16325 0 -0.000488281 7.16373 -0.000488281 16C-0.000488281 24.8363 7.16325 32 15.9995 32C24.8358 32 31.9995 24.8363 31.9995 16C31.9995 7.16373 24.8358 0 15.9995 0ZM10.7552 29.9803V2.01973C12.3883 1.40533 14.1547 1.06667 15.9995 1.06667C17.8443 1.06667 19.6107 1.40533 21.2438 2.01973V29.9803C19.6107 30.5947 17.8443 30.9333 15.9995 30.9333C14.1547 30.9333 12.3883 30.5947 10.7552 29.9803Z" fill="#00A613"/>
</g>
<defs>
<clipPath id="clip0_5634_8031">
<rect x="-0.000488281" width="32" height="32" rx="16" fill="white"/>
</clipPath>
</defs>
</svg>
