<svg width="100" height="100" viewBox="0 0 100 100" fill="none" xmlns="http://www.w3.org/2000/svg">
<rect width="100" height="100" rx="50" fill="#FD9602" fill-opacity="0.2"/>
<path d="M20.6667 79.3333V24.6667C20.6667 22.4613 22.4613 20.6667 24.6667 20.6667H50V39.3333H68.6667V40.8987C69.592 41.272 70.4773 41.7147 71.3333 42.2107V37.448L51.8853 18H24.6667C20.992 18 18 20.992 18 24.6667V82H60.6667C56.9227 82 53.4053 81.0293 50.3467 79.3333H20.6667ZM52.6667 22.552L66.7813 36.6667H52.6667V22.552ZM81.9867 80.1013L72.8747 70.9893C75.2373 68.2 76.6693 64.6 76.6693 60.6693C76.6693 51.8453 69.4933 44.6693 60.6693 44.6693C51.8453 44.6693 44.6693 51.8453 44.6693 60.6693C44.6693 69.4933 51.8453 76.6693 60.6693 76.6693C64.6027 76.6693 68.2027 75.2373 70.9893 72.8747L80.1013 81.9867L81.9867 80.1013ZM60.6667 74C53.3147 74 47.3333 68.0187 47.3333 60.6667C47.3333 53.3147 53.3147 47.3333 60.6667 47.3333C68.0187 47.3333 74 53.3147 74 60.6667C74 68.0187 68.0187 74 60.6667 74ZM70.376 57.3653L61.1573 66.4293C60.5547 67.032 59.7627 67.3307 58.968 67.3307C58.1733 67.3307 57.3733 67.0293 56.7653 66.4213L51.8267 61.6373L53.6827 59.7227L58.632 64.52C58.8187 64.704 59.1013 64.7067 59.2747 64.5333L68.4987 55.4613L70.368 57.3627L70.376 57.3653ZM44.0267 47.3333H28.6667V44.6667H46.5893C45.6613 45.4827 44.8 46.3707 44.0267 47.3333ZM40.032 55.3333C39.808 56.2027 39.6293 57.0907 39.5173 58H28.6667V55.3333H40.032ZM28.6667 66H40.032C40.2667 66.912 40.5493 67.8053 40.8987 68.6667H28.6667V66Z" fill="#393939"/>
</svg>
