<svg width="101" height="100" viewBox="0 0 101 100" fill="none" xmlns="http://www.w3.org/2000/svg">
<rect x="0.5" width="100" height="100" rx="50" fill="#FD9602" fill-opacity="0.2"/>
<g clip-path="url(#clip0_5580_2096)">
<path d="M40.8748 28.7573L43.8588 31.1867L42.6801 34.7307C42.3121 35.8987 42.7255 37.176 43.7068 37.912C44.2108 38.288 44.8108 38.4853 45.4375 38.4853C46.0108 38.4853 46.5655 38.3173 47.0455 37.9973L50.5255 35.6667L54.0721 37.9787C55.0988 38.6453 56.4401 38.5893 57.4108 37.8453C58.3815 37.096 58.7761 35.8107 58.3815 34.6267L57.1681 31.1707L60.1388 28.7493C61.0641 27.9707 61.4081 26.6853 60.9921 25.5493C60.5761 24.4133 59.4881 23.6507 58.2775 23.6507H54.5495L53.2081 19.8853C52.7921 18.7573 51.7041 18 50.5015 18C49.2988 18 48.2108 18.7573 47.7868 19.8987L46.4508 23.648H42.7228C41.5148 23.648 40.4268 24.408 40.0108 25.536C39.5921 26.6667 39.9308 27.9573 40.8748 28.7573ZM42.7228 26.3147H47.3895C47.9521 26.3147 48.4561 25.96 48.6455 25.4293L50.2988 20.7947H50.6988L52.3521 25.4293C52.5415 25.96 53.0455 26.3147 53.6081 26.3147H58.2748L58.4348 26.6933L54.7548 29.6933C54.3201 30.048 54.1521 30.6373 54.3388 31.168L55.8615 35.5093L55.5228 35.744L51.2401 32.9547C50.7921 32.6613 50.2161 32.6693 49.7708 32.9627L45.5601 35.7813C45.5121 35.8133 45.4668 35.8187 45.4348 35.8187L45.2161 35.5493L46.6801 31.152C46.8535 30.6267 46.6855 30.0453 46.2561 29.6987L42.5575 26.6907L42.7228 26.3147ZM82.3255 33.2587C81.9095 32.1227 80.8215 31.36 79.6108 31.36H75.8828L74.5415 27.5947C74.1255 26.4667 73.0375 25.7093 71.8348 25.7093C70.6321 25.7093 69.5441 26.4667 69.1201 27.608L67.7841 31.3573H64.0561C62.8481 31.3573 61.7575 32.12 61.3468 33.2453C60.9281 34.3787 61.2641 35.664 62.2081 36.464L65.1921 38.8933L64.0135 42.4373C63.6455 43.6053 64.0588 44.8827 65.0375 45.616C65.5388 45.9947 66.1388 46.192 66.7708 46.192C67.3441 46.192 67.8988 46.024 68.3788 45.704L71.8588 43.3733L75.4055 45.6853C76.4295 46.352 77.7735 46.296 78.7441 45.552C79.7148 44.8027 80.1095 43.5173 79.7148 42.3333L78.5015 38.8773L81.4721 36.456C82.3975 35.6773 82.7415 34.3947 82.3255 33.2587ZM76.0908 37.4027C75.6561 37.7573 75.4881 38.3467 75.6748 38.8773L77.1975 43.2187L76.8588 43.4533L72.5761 40.664C72.1281 40.3733 71.5495 40.3787 71.1068 40.672L66.8961 43.4907C66.8481 43.5227 66.8028 43.528 66.7708 43.528L66.5521 43.2587L68.0161 38.8613C68.1895 38.336 68.0215 37.7547 67.5921 37.408L63.8935 34.4L64.0588 34.0267H68.7255C69.2881 34.0267 69.7921 33.672 69.9815 33.1413L71.6348 28.5067H72.0348L73.6881 33.1413C73.8775 33.672 74.3815 34.0267 74.9441 34.0267H79.6108L79.7708 34.4053L76.0908 37.4027ZM32.7361 45.688C33.7628 46.3547 35.1041 46.2987 36.0748 45.5547C37.0455 44.8053 37.4401 43.52 37.0455 42.336L35.8321 38.88L38.8028 36.4587C39.7281 35.68 40.0721 34.3947 39.6561 33.2587C39.2401 32.1227 38.1521 31.36 36.9415 31.36H33.2135L31.8721 27.5947C31.4561 26.4667 30.3681 25.7093 29.1655 25.7093C27.9628 25.7093 26.8748 26.4667 26.4508 27.608L25.1148 31.3573H21.3868C20.1788 31.3573 19.0881 32.12 18.6775 33.2453C18.2588 34.3787 18.5948 35.664 19.5388 36.464L22.5228 38.8933L21.3441 42.4373C20.9761 43.6053 21.3895 44.8827 22.3681 45.616C22.8695 45.9947 23.4695 46.192 24.1015 46.192C24.6748 46.192 25.2295 46.024 25.7095 45.704L29.1895 43.3733L32.7361 45.6853V45.688ZM28.4375 40.672L24.2268 43.4907C24.1788 43.5227 24.1335 43.528 24.1015 43.528L23.8828 43.2587L25.3468 38.8613C25.5201 38.336 25.3521 37.7547 24.9228 37.408L21.2241 34.4L21.3895 34.0267H26.0561C26.6188 34.0267 27.1228 33.672 27.3121 33.1413L28.9655 28.5067H29.3655L31.0188 33.1413C31.2081 33.672 31.7121 34.0267 32.2748 34.0267H36.9415L37.1015 34.4053L33.4215 37.4053C32.9868 37.76 32.8188 38.3493 33.0055 38.88L34.5281 43.2213L34.1895 43.456L29.9068 40.6667C29.4615 40.376 28.8828 40.3813 28.4375 40.6747V40.672ZM63.8321 55.3333H52.6775L54.2428 46.4533C54.2837 45.5502 54.2837 45.0764 54.2428 45.032C53.9201 43.848 53.1708 42.9147 52.1335 42.4053C51.0828 41.8933 49.8721 41.872 48.7175 42.352C48.0401 42.632 47.3788 43.3307 46.9068 44.2507L41.0508 55.3307H37.1681C32.7575 55.3307 29.1681 58.92 29.1681 63.3307V73.9973C29.1681 78.408 32.7575 81.9973 37.1681 81.9973H59.5121C64.5788 81.9973 68.9788 78.3893 69.9735 73.4213L71.6775 64.8987C72.1495 62.5387 71.5441 60.12 70.0188 58.2587C68.4935 56.3973 66.2401 55.3307 63.8321 55.3307V55.3333ZM31.8348 74V63.3333C31.8348 60.392 34.2268 58 37.1681 58H39.8348V79.3333H37.1681C34.2268 79.3333 31.8348 76.9413 31.8348 74ZM69.0615 64.3787L67.3575 72.9013C66.6108 76.6267 63.3121 79.3333 59.5121 79.3333H42.5015V57.5707C42.8775 57.328 43.1921 56.9893 43.4081 56.5787L49.2748 45.4827C49.5255 44.992 49.7601 44.8133 49.7468 44.8133C50.1815 44.632 50.6108 44.6293 50.9601 44.8C51.2268 44.9307 51.4375 45.16 51.6188 45.576L50.0561 54.8667C49.9175 55.6453 50.1281 56.4373 50.6375 57.048C51.1468 57.6533 51.8908 58 52.6801 58H63.8348C65.4401 58 66.9415 58.712 67.9575 59.952C68.9761 61.192 69.3761 62.8053 69.0615 64.3787Z" fill="#393939"/>
</g>
<defs>
<clipPath id="clip0_5580_2096">
<rect width="64" height="64" fill="white" transform="translate(18.5 18)"/>
</clipPath>
</defs>
</svg>
