<svg width="37" height="37" viewBox="0 0 37 37" fill="none" xmlns="http://www.w3.org/2000/svg">
<path d="M21.4513 10.6433L20.0713 12.0233C19.7617 12.3331 19.394 12.5788 18.9894 12.7464C18.5847 12.9139 18.151 13.0001 17.713 13H15.3563C14.7313 13 14.1313 13.2483 13.6897 13.69C13.4708 13.9089 13.2971 14.1687 13.1786 14.4547C13.0602 14.7406 12.9992 15.0471 12.9992 15.3567C12.9992 15.6662 13.0602 15.9727 13.1786 16.2587C13.2971 16.5447 13.4708 16.8045 13.6897 17.0233L16.738 20.0717C17.3631 20.6966 18.2108 21.0476 19.0947 21.0476C19.9786 21.0476 20.8262 20.6966 21.4513 20.0717L23.808 17.7133L25.4147 21.2483C25.5646 21.5786 25.7923 21.8677 26.0784 22.0906C26.3644 22.3136 26.7003 22.4639 27.0572 22.5286C27.4141 22.5934 27.7813 22.5706 28.1275 22.4623C28.4736 22.3539 28.7883 22.1633 29.0447 21.9067C29.4647 21.4867 29.7013 20.915 29.7013 20.32V13.2033C29.7012 12.7654 29.7874 12.3316 29.955 11.927C30.1226 11.5223 30.3683 11.1547 30.678 10.845L34.4147 7.10668C35.2013 6.32334 36.3013 4.27834 34.4147 2.39334C32.528 0.508344 30.4863 1.60834 29.7013 2.39334L26.7547 5.34001M21.4513 10.6433L18.0847 9.52001C17.6946 9.38985 17.3443 9.16218 17.0669 8.85859C16.7895 8.555 16.5943 8.18558 16.4998 7.78537C16.4053 7.38516 16.4146 6.96744 16.5269 6.57184C16.6392 6.17625 16.8507 5.81591 17.1413 5.52501C17.3846 5.28197 17.677 5.09366 17.9989 4.97266C18.3208 4.85166 18.6649 4.80075 19.008 4.82334L26.7547 5.34001M21.4513 10.6433L26.7547 5.34001M1.33301 22.8417C2.50801 20.785 4.37467 18.975 6.33301 17.5017M1.33301 35.34C3.11967 30.3367 6.42467 26.0667 9.70467 22.84M10.4997 33.6733C11.7013 31.27 13.7663 28.545 15.6447 26.3317" stroke="#393939" stroke-width="2.5" stroke-linecap="round" stroke-linejoin="round"/>
</svg>
